<svg width="276" height="360" viewBox="0 0 276 360" fill="none" xmlns="http://www.w3.org/2000/svg">
<path opacity="0.32" d="M213.992 244.357L224.128 257.028H204.944H204.444V257.528V271.011V271.166L204.531 271.294L221.947 296.747L216.587 330.248L216.585 330.258L211.292 359.368L193.526 354.291L205.391 330.561L205.66 330.022L205.081 329.856L186.205 324.463L186.137 324.444H186.067H141.869L127.18 297.737L127.105 297.6L126.965 297.53L116.27 292.183L101.505 274.733L101.372 274.575L101.165 274.558L85.2251 273.23C83.9063 271.274 82.5477 269.6 80.6873 268.247C78.7612 266.846 76.3296 265.812 72.907 265.128L72.8774 265.122L72.8473 265.119C68.4484 264.781 64.1369 264.697 60.1343 264.633C59.8552 264.629 59.5777 264.625 59.3018 264.621C55.6135 264.563 52.214 264.511 49.2528 264.277C46.0623 264.025 43.4391 263.566 41.5423 262.698C39.6713 261.843 38.549 260.612 38.246 258.794L38.2427 258.775L38.2379 258.755C38.0409 257.967 37.4741 257.074 36.68 256.125C35.8758 255.164 34.7971 254.097 33.5124 252.961C30.942 250.688 27.5109 248.105 23.7106 245.487C16.3381 240.408 7.53575 235.17 0.840476 231.774C20.9612 211.395 40.9316 175.145 35.5513 140.155C32.8828 119.455 42.5609 100.379 54.8331 84.5763C64.06 72.6951 74.6963 62.7307 82.5777 55.3472C85.184 52.9055 87.4891 50.7461 89.3423 48.8929L89.3583 48.8768L89.3729 48.8594C96.1162 40.7674 106.198 28.6719 119.128 18.5966C132.057 8.52184 147.793 0.5 165.843 0.5H165.858H165.874H165.89H165.906H165.921H165.937H165.953H165.968H165.984H165.999H166.015H166.03H166.046H166.061H166.076H166.092H166.107H166.122H166.137H166.153H166.168H166.183H166.198H166.213H166.228H166.243H166.258H166.273H166.288H166.303H166.318H166.333H166.348H166.363H166.378H166.392H166.407H166.422H166.437H166.451H166.466H166.481H166.495H166.51H166.524H166.539H166.553H166.568H166.582H166.597H166.611H166.625H166.64H166.654H166.668H166.683H166.697H166.711H166.725H166.74H166.754H166.768H166.782H166.796H166.81H166.824H166.838H166.852H166.866H166.88H166.894H166.908H166.922H166.936H166.949H166.963H166.977H166.991H167.005H167.018H167.032H167.046H167.059H167.073H167.087H167.1H167.114H167.127H167.141H167.154H167.168H167.181H167.195H167.208H167.222H167.235H167.248H167.262H167.275H167.289H167.302H167.315H167.328H167.342H167.355H167.368H167.381H167.394H167.408H167.421H167.434H167.447H167.46H167.473H167.486H167.499H167.512H167.525H167.538H167.551H167.564H167.577H167.59H167.603H167.616H167.629H167.642H167.654H167.667H167.68H167.693H167.706H167.718H167.731H167.744H167.757H167.769H167.782H167.795H167.807H167.82H167.833H167.845H167.858H167.871H167.883H167.896H167.908H167.921H167.933H167.946H167.958H167.971H167.983H167.996H168.008H168.021H168.033H168.046H168.058H168.07H168.083H168.095H168.108H168.12H168.132H168.145H168.157H168.169H168.182H168.194H168.206H168.218H168.231H168.243H168.255H168.267H168.28H168.292H168.304H168.316H168.328H168.341H168.353H168.365H168.377H168.389H168.401H168.413H168.426H168.438H168.45H168.462H168.474H168.486H168.498H168.51H168.522H168.534H168.546H168.558H168.57H168.582H168.594H168.606H168.618H168.63H168.642H168.654H168.666H168.678H168.69H168.702H168.714H168.726H168.738H168.75H168.762H168.774H168.786H168.798H168.81H168.822H168.834H168.846H168.857H168.869H168.881H168.893H168.905H168.917H168.929H168.941H168.953H168.964H168.976H168.988H169H169.012H169.024H169.036H169.048H169.059H169.071H169.083H169.095H169.107H169.119H169.131H169.142H169.154H169.166H169.178H169.19H169.202H169.213H169.225H169.237H169.249H169.261H169.273H169.285H169.296H169.308H169.32H169.332H169.344H169.356H169.368H169.379H169.391H169.403H169.415H169.427H169.439H169.451H169.463H169.474H169.486H169.498H169.51H169.522H169.534H169.546H169.558H169.57H169.581H169.593H169.605H169.617H169.629H169.641H169.653H169.665H169.677H169.689H169.701H169.713H169.725H169.737H169.749H169.761H169.773H169.785H169.796H169.808H169.82H169.833H169.845H169.857H169.869H169.881H169.893H169.905H169.917H169.929H169.941H169.953H169.965H169.977H169.989H170.001H170.013H170.026H170.038H170.05H170.062H170.074H170.086H170.099H170.111H170.123H170.135H170.147H170.16H170.172H170.184H170.196H170.209H170.221H170.233H170.245H170.258H170.27H170.282H170.295H170.307H170.319H170.332H170.344H170.356H170.369H170.381H170.394H170.406H170.419H170.431H170.444H170.456H170.469H170.481H170.494H170.506H170.519H170.531H170.544H170.556H170.569H170.582H170.594H170.607H170.619H170.632H170.645H170.658H170.67H170.683H170.696H170.708H170.721H170.734H170.747H170.76H170.772H170.785H170.798H170.811H170.824H170.837H170.85H170.863H170.876H170.889H170.902H170.915H170.928H170.941H170.954H170.967H170.98H170.993H171.006H171.019H171.032H171.046H171.059H171.072H171.085H171.099H171.112H171.125H171.138H171.152H171.165H171.178H171.192H171.205H171.219H171.232H171.246H171.259H171.273H171.286H171.3H171.313H171.327H171.34H171.354H171.368H171.381H171.395H171.409H171.422H171.43L151.995 21.2311L151.95 21.2786L151.919 21.336L152.36 21.573C151.919 21.336 151.919 21.3361 151.919 21.3362L151.919 21.3368L151.918 21.3392L151.912 21.3488L151.892 21.3867L151.812 21.5357L151.503 22.1108C151.234 22.6113 150.844 23.3384 150.36 24.2445C149.39 26.0568 148.042 28.5855 146.524 31.4515C143.49 37.1823 139.78 44.2652 137.081 49.664L137.069 49.6875L137.06 49.7121C136.53 51.125 136.386 52.3933 136.568 53.5274C136.751 54.6635 137.256 55.6328 137.973 56.4528C139.394 58.0769 141.654 59.1222 143.959 59.8052C146.278 60.4923 148.715 60.8334 150.565 61.0035C151.492 61.0887 152.275 61.1314 152.827 61.1527C152.941 61.1571 153.045 61.1606 153.138 61.1634L150.516 80.8328L150.511 80.8657V80.8989H151.011C150.511 80.8989 150.511 80.8991 150.511 80.8995V80.9007L150.511 80.9052L150.511 80.9217L150.512 80.9847C150.512 81.0085 150.512 81.0371 150.513 81.0704C150.513 81.1143 150.514 81.1664 150.515 81.2264C150.519 81.4371 150.527 81.7449 150.543 82.1359C150.575 82.9177 150.639 84.0329 150.766 85.3704C151.021 88.0431 151.53 91.615 152.553 95.1935C153.574 98.7663 155.116 102.383 157.457 105.115C159.812 107.861 162.977 109.713 167.191 109.713H167.286H167.381H167.476H167.571H167.666H167.761H167.856H167.951H168.047H168.142H168.237H168.333H168.428H168.524H168.619H168.715H168.811H168.907H169.002H169.098H169.194H169.29H169.386H169.482H169.578H169.674H169.77H169.866H169.962H170.059H170.155H170.251H170.347H170.444H170.54H170.636H170.733H170.829H170.926H171.022H171.119H171.215H171.312H171.408H171.505H171.602H171.698H171.795H171.892H171.988H172.085H172.182H172.278H172.375H172.472H172.569H172.665H172.762H172.859H172.956H173.052H173.149H173.246H173.343H173.439H173.536H173.633H173.73H173.827H173.923H174.02H174.117H174.214H174.31H174.407H174.504H174.6H174.697H174.794H174.89H174.987H175.084H175.18H175.277H175.374H175.47H175.567H175.663H175.76H175.856H175.953H176.049H176.145H176.242H176.338H176.434H176.531H176.627H176.723H176.819H176.915H177.011H177.107H177.204H177.3H177.395H177.491H177.587H177.683H177.779H177.875H177.97H178.066H178.161H178.257H178.353H178.448H178.543H178.639H178.734H178.829H178.924H179.02H179.115H179.21H179.305H179.4H179.494H179.589H179.684H179.778H179.873H179.968H180.062H180.156H180.251H180.345H180.439H180.533H180.627H180.721H180.815H180.909H181.003H181.096H181.19H181.283H181.377H181.47H181.563H181.657H181.75H181.843H181.936H182.028H182.121H182.214H182.306H182.399H182.491H182.583H182.676H182.768H182.86H182.952H183.044H183.135H183.227H183.318H183.41H183.501H183.592H183.683H183.774H183.865H183.956H184.047H184.137H184.228H184.318H184.408H184.498H184.588H184.678H184.768H184.858H184.947H185.037H185.126H185.215H185.304H185.393H185.482H185.571H185.659H185.748H185.836H185.924H186.012H186.1H186.188H186.276H186.363H186.451H186.538H186.625H186.712H186.799H186.886H186.972H187.059H187.145H187.231H187.317H187.403H187.489H187.574H187.66H187.745H187.83H187.915H188H188.084H188.169H188.253H188.337H188.421H188.505H188.589H188.673H188.756H188.839H188.922H189.005H189.088H189.171H189.253H189.335H189.417H189.499H189.581H189.663H189.744H189.825H189.906H189.987H190.068H190.149H190.229H190.309H190.389H190.469H190.549H190.628H190.707H190.786H190.865H190.944H191.023H191.101H191.179H191.257H191.335H191.413H191.49H191.567H191.644H191.721H191.798H191.874H191.95H192.026H192.102H192.178H192.253H192.328H192.403H192.478H192.553H192.627H192.701H192.775H192.849H192.922H192.996H193.069H193.142H193.215H193.287H193.359H193.431H193.503H193.575H193.646H193.717H193.788H193.859H193.929H194H194.07H194.139H194.209H194.278H194.348H194.416H194.485H194.554H194.622H194.69H194.757H194.825H194.892H194.959H195.026H195.092H195.159H195.225H195.29H195.356H195.421H195.486H195.551H195.616H195.68H195.744H195.808H195.871H195.935H195.998H196.061H196.123H196.185H196.247H196.309H196.371H196.432H196.493H196.554H196.614H196.674H196.734H196.794H196.853H196.912H196.971H197.03H197.088H197.146H197.204H197.261H197.318H197.375H197.432H197.488H197.544H197.6H197.656H197.711H197.766H197.821H197.875H197.929H197.983H198.036H198.09H198.143H198.195H198.248H198.3H198.352H198.403H198.454H198.505H198.556H198.606H198.656H198.706H198.755H198.804H198.853H198.901H198.95H198.997H199.045H199.092H199.139H199.186H199.232H199.278H199.324H199.369H199.414H199.459H199.503H199.547H199.591H199.635H199.678H199.721H199.763H199.805H199.847H199.889H199.93H199.971H200.011H200.052H200.091H200.131H200.17H200.209H200.248H200.286H200.324H200.361H200.399H200.435H200.472H200.508H200.544H200.579H200.615H200.649H200.684H200.718H200.752H200.785H200.818H200.851H200.883H200.915H200.947H200.978H201.009H201.04H201.07H201.1H201.129H201.159H201.187H201.216H201.244H201.271H201.299H201.326H201.352H201.379H201.404H201.43H201.455H201.48H201.504H201.528H201.552H201.575H201.598H201.62H201.643H201.664H201.686H201.707H201.727H201.747H201.767H201.787H201.806H201.824H201.843H201.861H201.878H201.895H201.912H201.928H201.944H201.96H201.975H201.989H202.004H202.018H202.031H202.04L224.815 132.488L224.982 132.655L225.217 132.633L266.161 128.67L261.116 140.022L261.087 140.087L261.078 140.157L257.033 169.82L257.011 169.979L257.086 170.122L269.036 192.693L258.547 201.871L258.187 202.186L258.486 202.56L274.23 222.24L245.295 232.762L214.36 234.107L213.882 234.128V234.607V244.045V244.22L213.992 244.357Z" stroke="white"/>
<path d="M97.9068 130.128C96.7868 130.128 95.7734 129.883 94.8668 129.392C93.9708 128.891 93.2668 128.208 92.7548 127.344C92.2428 126.469 91.9868 125.488 91.9868 124.4C91.9868 123.312 92.2428 122.336 92.7548 121.472C93.2668 120.597 93.9761 119.915 94.8828 119.424C95.7894 118.923 96.8028 118.672 97.9228 118.672C98.7974 118.672 99.5974 118.821 100.323 119.12C101.048 119.408 101.667 119.84 102.179 120.416L101.139 121.424C100.296 120.539 99.2454 120.096 97.9868 120.096C97.1548 120.096 96.4028 120.283 95.7308 120.656C95.0588 121.029 94.5308 121.547 94.1468 122.208C93.7734 122.859 93.5868 123.589 93.5868 124.4C93.5868 125.211 93.7734 125.947 94.1468 126.608C94.5308 127.259 95.0588 127.771 95.7308 128.144C96.4028 128.517 97.1548 128.704 97.9868 128.704C99.2348 128.704 100.285 128.256 101.139 127.36L102.179 128.368C101.667 128.944 101.043 129.381 100.307 129.68C99.5814 129.979 98.7814 130.128 97.9068 130.128ZM109.283 130.128C108.152 130.128 107.134 129.883 106.227 129.392C105.32 128.891 104.606 128.203 104.083 127.328C103.571 126.453 103.315 125.477 103.315 124.4C103.315 123.323 103.571 122.347 104.083 121.472C104.606 120.597 105.32 119.915 106.227 119.424C107.134 118.923 108.152 118.672 109.283 118.672C110.403 118.672 111.416 118.923 112.323 119.424C113.23 119.915 113.939 120.597 114.451 121.472C114.963 122.336 115.219 123.312 115.219 124.4C115.219 125.488 114.963 126.469 114.451 127.344C113.939 128.208 113.23 128.891 112.323 129.392C111.416 129.883 110.403 130.128 109.283 130.128ZM109.283 128.704C110.104 128.704 110.84 128.517 111.491 128.144C112.152 127.771 112.67 127.259 113.043 126.608C113.427 125.947 113.619 125.211 113.619 124.4C113.619 123.589 113.427 122.859 113.043 122.208C112.67 121.547 112.152 121.029 111.491 120.656C110.84 120.283 110.104 120.096 109.283 120.096C108.462 120.096 107.715 120.283 107.043 120.656C106.382 121.029 105.859 121.547 105.475 122.208C105.102 122.859 104.915 123.589 104.915 124.4C104.915 125.211 105.102 125.947 105.475 126.608C105.859 127.259 106.382 127.771 107.043 128.144C107.715 128.517 108.462 128.704 109.283 128.704ZM117.664 118.8H119.264V128.608H125.328V130H117.664V118.8ZM132.017 130.128C130.887 130.128 129.868 129.883 128.961 129.392C128.055 128.891 127.34 128.203 126.817 127.328C126.305 126.453 126.049 125.477 126.049 124.4C126.049 123.323 126.305 122.347 126.817 121.472C127.34 120.597 128.055 119.915 128.961 119.424C129.868 118.923 130.887 118.672 132.017 118.672C133.137 118.672 134.151 118.923 135.057 119.424C135.964 119.915 136.673 120.597 137.185 121.472C137.697 122.336 137.953 123.312 137.953 124.4C137.953 125.488 137.697 126.469 137.185 127.344C136.673 128.208 135.964 128.891 135.057 129.392C134.151 129.883 133.137 130.128 132.017 130.128ZM132.017 128.704C132.839 128.704 133.575 128.517 134.225 128.144C134.887 127.771 135.404 127.259 135.777 126.608C136.161 125.947 136.353 125.211 136.353 124.4C136.353 123.589 136.161 122.859 135.777 122.208C135.404 121.547 134.887 121.029 134.225 120.656C133.575 120.283 132.839 120.096 132.017 120.096C131.196 120.096 130.449 120.283 129.777 120.656C129.116 121.029 128.593 121.547 128.209 122.208C127.836 122.859 127.649 123.589 127.649 124.4C127.649 125.211 127.836 125.947 128.209 126.608C128.593 127.259 129.116 127.771 129.777 128.144C130.449 128.517 131.196 128.704 132.017 128.704ZM150.783 130L150.767 121.84L146.719 128.64H145.983L141.935 121.888V130H140.399V118.8H141.711L146.383 126.672L150.991 118.8H152.303L152.319 130H150.783ZM163.216 124.192C163.867 124.373 164.379 124.704 164.752 125.184C165.125 125.653 165.312 126.251 165.312 126.976C165.312 127.947 164.944 128.693 164.208 129.216C163.483 129.739 162.421 130 161.024 130H155.68V118.8H160.704C161.984 118.8 162.971 119.056 163.664 119.568C164.368 120.08 164.72 120.789 164.72 121.696C164.72 122.283 164.581 122.789 164.304 123.216C164.037 123.643 163.675 123.968 163.216 124.192ZM157.28 120.096V123.68H160.56C161.381 123.68 162.011 123.531 162.448 123.232C162.896 122.923 163.12 122.475 163.12 121.888C163.12 121.301 162.896 120.859 162.448 120.56C162.011 120.251 161.381 120.096 160.56 120.096H157.28ZM160.96 128.704C161.867 128.704 162.549 128.555 163.008 128.256C163.467 127.957 163.696 127.488 163.696 126.848C163.696 125.6 162.784 124.976 160.96 124.976H157.28V128.704H160.96ZM167.789 118.8H169.389V130H167.789V118.8ZM179.878 127.2H173.927L172.695 130H171.046L176.119 118.8H177.703L182.791 130H181.111L179.878 127.2ZM179.319 125.92L176.903 120.432L174.487 125.92H179.319Z" fill="white"/>
<g clip-path="url(#clip0_2123_262)">
<path d="M136.955 86C133.355 86.1637 130.409 88.9455 130 92.4637C130 93.2 130 93.8546 130.164 94.5091C130.164 94.5091 130.164 94.5909 130.245 94.7546C130.327 95.2455 130.491 95.7364 130.736 96.1455C131.473 97.8637 133.109 100.727 136.873 103.836C137.118 104 137.445 104 137.691 103.836C141.455 100.727 143.091 97.8637 143.827 96.1455C144.073 95.6546 144.236 95.2455 144.318 94.7546C144.318 94.5909 144.4 94.5091 144.4 94.5091C144.482 94.1 144.564 93.6091 144.564 93.1182C144.4 89.1091 141.045 85.8364 136.955 86ZM137.2 96.7182C135.236 96.7182 133.682 95.1637 133.682 93.2C133.682 91.2364 135.236 89.6818 137.2 89.6818C139.164 89.6818 140.636 91.3182 140.636 93.2818C140.636 95.2455 139.082 96.7182 137.2 96.7182Z" fill="white"/>
</g>
<defs>
<clipPath id="clip0_2123_262">
<rect width="15" height="19" fill="white" transform="translate(130 85)"/>
</clipPath>
</defs>
</svg>
