<svg width="320" height="360" viewBox="0 0 320 360" fill="none" xmlns="http://www.w3.org/2000/svg">
<path opacity="0.32" d="M302.388 101.575L302.401 101.628L302.426 101.677C307.02 110.91 308.713 121.613 310.268 131.437C310.353 131.972 310.437 132.504 310.521 133.033C311.335 138.143 312.153 142.981 313.385 147.158C314.612 151.319 316.263 154.879 318.776 157.417C319.809 158.832 319.742 161.097 318.538 164.183C317.341 167.255 315.081 170.972 312.037 175.101C305.955 183.352 296.819 193.148 287.057 202.549C277.298 211.947 266.931 220.936 258.397 227.571C254.13 230.89 250.328 233.614 247.296 235.506C245.779 236.453 244.463 237.185 243.383 237.679C242.285 238.182 241.491 238.409 240.996 238.409C239.286 238.409 237.138 238.89 234.664 239.74C232.181 240.593 229.336 241.83 226.221 243.37C219.99 246.449 212.646 250.755 204.904 255.669C189.421 265.496 172.314 277.775 159.282 287.597C153.513 291.74 147.98 298.341 142.93 305.875C137.875 313.418 133.284 321.929 129.411 329.918C125.537 337.909 122.378 345.386 120.186 350.865C119.091 353.605 118.237 355.846 117.657 357.403C117.367 358.181 117.145 358.788 116.996 359.201C116.965 359.288 116.937 359.366 116.912 359.435L42.8609 346.493L46.0931 288.028L46.0993 287.915L46.0565 287.81L23.2596 232.174L23.1822 231.985L22.9947 231.904L0.519749 222.225C2.16716 194.43 7.05351 152.928 17.9859 114.272C28.9737 75.4216 46.0307 39.5888 71.9134 23.3325L71.9196 23.3286L71.9257 23.3245L71.9383 23.3161C81.6104 16.8363 91.3223 10.3298 101.035 0.630389C102.596 1.57133 104.208 2.54168 105.863 3.53792C121.441 12.9156 140.829 24.5865 157.265 35.5972C166.419 41.7299 174.644 47.6496 180.78 52.8474C183.848 55.4467 186.384 57.857 188.25 60.0158C190.117 62.1773 191.273 64.0409 191.656 65.5567C192.51 70.6674 195.714 73.85 200.608 75.8382C205.475 77.8156 212.063 78.6355 219.801 79.0448C224.443 79.2903 229.508 79.389 234.893 79.494C247.527 79.7403 261.922 80.0209 276.743 82.3123L276.781 82.3182H276.82C283.25 82.3182 288.84 83.9331 293.215 87.1309C297.587 90.3262 300.784 95.129 302.388 101.575Z" stroke="white"/>
<path d="M126.808 128.608V130H118.68V118.8H126.584V120.192H120.28V123.632H125.896V124.992H120.28V128.608H126.808ZM134.36 130.128C133.24 130.128 132.227 129.883 131.32 129.392C130.424 128.891 129.72 128.208 129.208 127.344C128.696 126.469 128.44 125.488 128.44 124.4C128.44 123.312 128.696 122.336 129.208 121.472C129.72 120.597 130.429 119.915 131.336 119.424C132.243 118.923 133.256 118.672 134.376 118.672C135.251 118.672 136.051 118.821 136.776 119.12C137.501 119.408 138.12 119.84 138.632 120.416L137.592 121.424C136.749 120.539 135.699 120.096 134.44 120.096C133.608 120.096 132.856 120.283 132.184 120.656C131.512 121.029 130.984 121.547 130.6 122.208C130.227 122.859 130.04 123.589 130.04 124.4C130.04 125.211 130.227 125.947 130.6 126.608C130.984 127.259 131.512 127.771 132.184 128.144C132.856 128.517 133.608 128.704 134.44 128.704C135.688 128.704 136.739 128.256 137.592 127.36L138.632 128.368C138.12 128.944 137.496 129.381 136.76 129.68C136.035 129.979 135.235 130.128 134.36 130.128ZM145.508 130.128C144.014 130.128 142.852 129.701 142.02 128.848C141.188 127.995 140.772 126.768 140.772 125.168V118.8H142.372V125.104C142.372 127.504 143.422 128.704 145.524 128.704C146.548 128.704 147.332 128.411 147.876 127.824C148.42 127.227 148.692 126.32 148.692 125.104V118.8H150.244V125.168C150.244 126.779 149.828 128.011 148.996 128.864C148.164 129.707 147.001 130.128 145.508 130.128ZM160.425 127.2H154.473L153.241 130H151.593L156.665 118.8H158.249L163.337 130H161.657L160.425 127.2ZM159.865 125.92L157.449 120.432L155.033 125.92H159.865ZM165.008 118.8H169.728C170.912 118.8 171.963 119.035 172.88 119.504C173.797 119.973 174.507 120.635 175.008 121.488C175.52 122.331 175.776 123.301 175.776 124.4C175.776 125.499 175.52 126.475 175.008 127.328C174.507 128.171 173.797 128.827 172.88 129.296C171.963 129.765 170.912 130 169.728 130H165.008V118.8ZM169.632 128.608C170.539 128.608 171.333 128.432 172.016 128.08C172.709 127.728 173.243 127.237 173.616 126.608C173.989 125.968 174.176 125.232 174.176 124.4C174.176 123.568 173.989 122.837 173.616 122.208C173.243 121.568 172.709 121.072 172.016 120.72C171.333 120.368 170.539 120.192 169.632 120.192H166.608V128.608H169.632ZM183.283 130.128C182.152 130.128 181.134 129.883 180.227 129.392C179.32 128.891 178.606 128.203 178.083 127.328C177.571 126.453 177.315 125.477 177.315 124.4C177.315 123.323 177.571 122.347 178.083 121.472C178.606 120.597 179.32 119.915 180.227 119.424C181.134 118.923 182.152 118.672 183.283 118.672C184.403 118.672 185.416 118.923 186.323 119.424C187.23 119.915 187.939 120.597 188.451 121.472C188.963 122.336 189.219 123.312 189.219 124.4C189.219 125.488 188.963 126.469 188.451 127.344C187.939 128.208 187.23 128.891 186.323 129.392C185.416 129.883 184.403 130.128 183.283 130.128ZM183.283 128.704C184.104 128.704 184.84 128.517 185.491 128.144C186.152 127.771 186.67 127.259 187.043 126.608C187.427 125.947 187.619 125.211 187.619 124.4C187.619 123.589 187.427 122.859 187.043 122.208C186.67 121.547 186.152 121.029 185.491 120.656C184.84 120.283 184.104 120.096 183.283 120.096C182.462 120.096 181.715 120.283 181.043 120.656C180.382 121.029 179.859 121.547 179.475 122.208C179.102 122.859 178.915 123.589 178.915 124.4C178.915 125.211 179.102 125.947 179.475 126.608C179.859 127.259 180.382 127.771 181.043 128.144C181.715 128.517 182.462 128.704 183.283 128.704ZM199.152 130L196.736 126.56C196.438 126.581 196.203 126.592 196.032 126.592H193.264V130H191.664V118.8H196.032C197.483 118.8 198.624 119.147 199.456 119.84C200.288 120.533 200.704 121.488 200.704 122.704C200.704 123.568 200.491 124.304 200.064 124.912C199.638 125.52 199.03 125.963 198.24 126.24L200.896 130H199.152ZM195.984 125.232C196.998 125.232 197.771 125.013 198.304 124.576C198.838 124.139 199.104 123.515 199.104 122.704C199.104 121.893 198.838 121.275 198.304 120.848C197.771 120.411 196.998 120.192 195.984 120.192H193.264V125.232H195.984Z" fill="white"/>
<g clip-path="url(#clip0_2123_260)">
<path d="M158.955 86C155.355 86.1637 152.409 88.9455 152 92.4637C152 93.2 152 93.8546 152.164 94.5091C152.164 94.5091 152.164 94.5909 152.245 94.7546C152.327 95.2455 152.491 95.7364 152.736 96.1455C153.473 97.8637 155.109 100.727 158.873 103.836C159.118 104 159.445 104 159.691 103.836C163.455 100.727 165.091 97.8637 165.827 96.1455C166.073 95.6546 166.236 95.2455 166.318 94.7546C166.318 94.5909 166.4 94.5091 166.4 94.5091C166.482 94.1 166.564 93.6091 166.564 93.1182C166.4 89.1091 163.045 85.8364 158.955 86ZM159.2 96.7182C157.236 96.7182 155.682 95.1637 155.682 93.2C155.682 91.2364 157.236 89.6818 159.2 89.6818C161.164 89.6818 162.636 91.3182 162.636 93.2818C162.636 95.2455 161.082 96.7182 159.2 96.7182Z" fill="white"/>
</g>
<defs>
<clipPath id="clip0_2123_260">
<rect width="15" height="19" fill="white" transform="translate(152 85)"/>
</clipPath>
</defs>
</svg>
