<svg width="307" height="360" viewBox="0 0 307 360" fill="none" xmlns="http://www.w3.org/2000/svg">
<path opacity="0.32" d="M302.628 49.3462V44.6161C299.959 43.2708 297.619 41.9296 295.763 40.7488C293.879 39.5496 292.468 38.4991 291.727 37.7673C290.436 36.8336 289.873 35.7178 290.087 34.4864C290.291 33.3148 291.182 32.1796 292.418 31.1204C294.904 28.9892 299.115 26.8912 303.618 25.1575C304.593 24.6666 305.198 24.1378 305.542 23.6112C305.882 23.0908 305.987 22.542 305.91 21.9601C305.75 20.7527 304.799 19.3831 303.386 18.0128C300.61 15.3211 296.394 12.9503 294.682 12.2528C294.116 12.1512 293.269 11.8942 292.234 11.5375C291.155 11.1653 289.839 10.6733 288.366 10.1047C286.629 9.43397 284.662 8.65263 282.595 7.83185C281.162 7.26242 279.681 6.674 278.195 6.09038C274.561 4.66286 270.893 3.26049 267.79 2.21543C266.239 1.69286 264.835 1.26185 263.652 0.961997C262.458 0.659666 261.524 0.5 260.897 0.5C258.18 0.5 251.123 1.35699 243.517 2.91293C235.904 4.47008 227.839 6.708 223.068 9.43412C213.341 14.9924 198.765 21.9315 176.571 28.1736C165.658 31.2428 156.05 40.6486 148.538 50.6654C141.045 60.6553 135.7 71.1677 133.281 76.3496C130.916 82.4951 127.903 88.6514 124.258 96.1003C122.554 99.5815 120.712 103.345 118.734 107.522L118.729 107.531L118.729 107.531C118.303 108.384 117.87 109.317 117.414 110.302C116.417 112.453 115.302 114.858 113.874 117.241C110.41 124.169 103.489 138.009 95.1853 153.234C82.0279 178.856 65.4062 207.945 59.1639 217.655L59.1594 217.662C54.2552 225.018 45.1836 232.16 37.3892 237.443C33.4833 240.09 29.882 242.281 27.257 243.811C25.9443 244.575 24.8754 245.175 24.134 245.584C23.7633 245.788 23.4745 245.945 23.278 246.05C23.2236 246.08 23.1762 246.105 23.1362 246.127C23.104 246.144 23.0765 246.158 23.0539 246.17L23.03 246.183C14.0404 254.136 7.85953 259.633 4.26074 263.918C2.46038 266.061 1.3401 267.862 0.82815 269.48C0.323033 271.076 0.405085 272.508 1.04634 273.951C1.42013 274.792 1.70922 276.002 1.9395 277.495C2.17112 278.995 2.34809 280.815 2.4838 282.894C2.75523 287.052 2.86344 292.278 2.90672 298.121C2.93563 302.023 2.93562 306.2 2.93561 310.523C2.93559 319.16 2.93557 328.378 3.16618 337.141C3.33677 343.623 5.21019 348.313 7.98375 351.654C10.7606 354.999 14.4719 357.03 18.3793 358.134C22.2888 359.239 26.3777 359.411 29.8744 359.048C33.388 358.684 36.2368 357.788 37.6967 356.815C40.7702 354.766 44.2034 351.679 48.2685 347.7C50.6064 345.412 53.1399 342.843 55.9258 340.017C57.986 337.928 60.1843 335.698 62.5436 333.339C64.2921 331.59 65.7562 330.602 67.0162 330.287C67.6581 330.126 68.254 330.139 68.8001 330.322C69.3437 330.504 69.8033 330.844 70.1939 331.283C70.9624 332.148 71.5065 333.448 71.9435 334.912C72.3367 336.229 72.658 337.733 72.9682 339.27L74.2264 338.85L77.6357 319.758L77.6857 319.478L77.9523 319.378C79.1692 318.922 80.3494 317.665 81.39 315.785C82.4213 313.923 83.2727 311.525 83.8713 308.917C85.0713 303.689 85.2287 297.736 83.8864 293.703C83.1897 291.786 82.8697 290.44 82.7999 289.497C82.7317 288.576 82.8945 287.906 83.3463 287.529C83.7993 287.152 84.3572 287.224 84.6833 287.312C84.7979 287.342 84.9024 287.38 84.9909 287.416C85 287.409 85.0094 287.401 85.019 287.393C85.184 287.259 85.4144 287.059 85.671 286.803C86.1873 286.286 86.7927 285.556 87.1919 284.678C87.5883 283.806 87.7771 282.8 87.4881 281.702C87.1982 280.6 86.411 279.344 84.7386 278.006L84.7273 277.997L84.7165 277.987C83.7468 277.114 83.0112 275.61 82.4367 273.742C81.8569 271.858 81.4197 269.531 81.0933 266.936C80.4405 261.746 80.224 255.426 80.224 249.317C80.224 243.205 80.4408 237.29 80.6573 232.904C80.7657 230.711 80.874 228.899 80.9552 227.636C80.9959 227.004 81.0297 226.509 81.0535 226.172C81.0653 226.003 81.0747 225.874 81.081 225.787L81.0883 225.688L81.0902 225.663L81.0907 225.657L81.0908 225.655C81.0908 225.655 81.0909 225.655 81.5894 225.692L81.0909 225.655L81.1007 225.524L81.1734 225.415L89.4811 212.953L89.6461 212.706L89.9424 212.733L104.484 214.055L99.7948 193.96L99.7488 193.763L99.853 193.589L108.086 179.868L107.397 155.091L107.388 154.739L107.716 154.611L119.884 149.879L120.552 141.192L120.569 140.98L120.733 140.845L120.733 140.845L120.735 140.844L120.74 140.839L120.764 140.819C120.786 140.801 120.818 140.774 120.86 140.739C120.944 140.668 121.067 140.562 121.224 140.425C121.538 140.152 121.985 139.753 122.515 139.255C123.577 138.257 124.968 136.866 126.293 135.285C127.62 133.7 128.865 131.944 129.65 130.217C130.438 128.483 130.73 126.85 130.269 125.466L130.265 125.456L130.263 125.445C129.559 122.983 129.036 119.835 128.774 116.783C128.514 113.754 128.509 110.781 128.859 108.647C128.873 108.185 129.085 107.599 129.363 107.137C129.51 106.891 129.693 106.65 129.907 106.465C130.093 106.303 130.34 106.153 130.632 106.121C130.754 106.061 130.954 105.898 131.234 105.562C131.537 105.2 131.878 104.707 132.259 104.116C132.539 103.683 132.842 103.193 133.164 102.673C133.703 101.805 134.294 100.851 134.916 99.9314C135.918 98.4496 137.052 96.976 138.306 95.9141C139.559 94.8527 140.994 94.1524 142.575 94.35C145.34 94.6956 148.124 94.6678 149.954 93.5537C150.846 93.0111 151.522 92.204 151.865 91.0088C152.212 89.7985 152.226 88.1598 151.718 85.9586L151.713 85.9405L151.711 85.9222L150.499 78.0472L150.348 77.0628L150.329 76.9398L150.326 76.9244L150.326 76.9224L150.326 76.9221L150.326 76.922L150.326 76.9218L150.326 76.9214C150.505 76.4934 150.936 76.4132 150.868 76.719L150.996 76.378L172.622 84.4878C172.626 84.4715 172.63 84.4549 172.634 84.438C172.725 84.057 172.855 83.51 173.006 82.847C173.308 81.5203 173.696 79.7316 174.04 77.8797C174.385 76.0252 174.684 74.1192 174.812 72.5543C174.876 71.7709 174.896 71.0868 174.86 70.544C174.823 69.9765 174.729 69.6498 174.635 69.5081C174.203 68.8595 174.145 68.1903 174.308 67.5767C174.466 66.9843 174.824 66.4615 175.196 66.0428C175.572 65.6199 175.99 65.273 176.309 65.0339C176.469 64.9136 176.607 64.8187 176.706 64.7533C176.735 64.7341 176.761 64.7174 176.783 64.7033C176.798 64.6934 176.812 64.6847 176.823 64.6774L176.856 64.6568L176.866 64.651L176.869 64.6492L176.87 64.6486L176.87 64.6484C176.87 64.6483 176.87 64.6483 176.893 64.6856L176.871 64.6482L176.905 64.6276L176.942 64.6127L180.392 63.2327L180.404 63.2281L185.239 61.1558L185.247 61.1521L185.256 61.1487L194.256 57.6872L194.75 57.4971L194.912 58.0015L194.436 58.1538C194.912 58.0015 194.912 58.0015 194.912 58.0016L194.912 58.0021L194.913 58.0044L194.916 58.0135L194.927 58.0501L194.974 58.1939C195.015 58.3201 195.076 58.5055 195.154 58.742C195.31 59.2149 195.536 59.8917 195.817 60.7062C196.378 62.3357 197.154 64.5137 198.016 66.7117C198.88 68.9127 199.824 71.1206 200.719 72.8157C201.168 73.6647 201.596 74.3692 201.987 74.8761C202.183 75.1295 202.361 75.3225 202.519 75.4576C202.673 75.5898 202.785 75.6466 202.855 75.6663C203.641 75.8199 204.995 75.7854 206.643 75.6238C208.281 75.4632 210.15 75.1841 211.919 74.8821C213.686 74.5804 215.346 74.257 216.565 74.0089C217.175 73.8848 217.673 73.7797 218.02 73.7056C218.193 73.6686 218.327 73.6393 218.419 73.6194L218.523 73.5966L218.549 73.5907L218.556 73.5893L218.557 73.5889L218.558 73.5889L218.666 74.0769L218.558 73.5888L218.777 73.5401L218.959 73.6716L230.93 82.3176L235.521 72.4809L235.644 72.2162L302.628 49.3462ZM302.628 49.3462H298.415L293.684 46.6428L292.936 46.2153V47.0769V54.3833L284.904 58.3989L284.719 58.4916L284.654 58.688L281.945 66.8145L278.036 69.0479C278.166 66.6466 278.83 64.1671 280.054 61.1088L280.057 61.1014L280.059 61.094C281.473 57.207 281.82 52.8133 281.82 49.4135C281.82 47.7093 281.733 46.2455 281.645 45.2068C281.602 44.6874 281.558 44.2738 281.525 43.9891C281.508 43.8468 281.494 43.7367 281.485 43.6617C281.48 43.6242 281.476 43.5954 281.473 43.5758L281.47 43.5533L281.469 43.5472L281.469 43.5455L281.469 43.545C281.469 43.5448 281.469 43.5447 280.974 43.6154L281.469 43.5447L281.429 43.2632L281.166 43.1539L273.063 39.7774L269.676 30.2934L269.486 29.762L268.981 30.0143L256.659 36.1752L251.968 35.505L251.656 35.4605L251.481 35.7226L251.897 36C251.481 35.7226 251.481 35.7228 251.481 35.723L251.48 35.7236L251.479 35.726L251.473 35.7345L251.452 35.7673C251.433 35.796 251.405 35.8384 251.369 35.8939C251.297 36.0048 251.192 36.1681 251.06 36.3791C250.795 36.8012 250.419 37.4145 249.972 38.1825C249.079 39.718 247.903 41.8748 246.769 44.3598C244.514 49.3037 242.382 55.6459 243.094 60.9878C243.765 66.3628 241.921 69.1213 240.001 70.5615C239.024 71.2946 238.001 71.7045 237.22 71.9308C236.83 72.0436 236.503 72.1099 236.276 72.1477C236.162 72.1666 236.074 72.1784 236.016 72.1853C235.987 72.1888 235.965 72.191 235.952 72.1923L235.937 72.1936L235.936 72.1938L235.935 72.1938L235.935 72.1938L302.628 49.3462Z" stroke="white"/>
<path d="M122.617 88.8V100H121.017V95.008H114.585V100H112.985V88.8H114.585V93.616H121.017V88.8H122.617ZM131.025 100.128C129.894 100.128 128.876 99.8827 127.969 99.392C127.062 98.8907 126.348 98.2027 125.825 97.328C125.313 96.4533 125.057 95.4773 125.057 94.4C125.057 93.3227 125.313 92.3467 125.825 91.472C126.348 90.5973 127.062 89.9147 127.969 89.424C128.876 88.9227 129.894 88.672 131.025 88.672C132.145 88.672 133.158 88.9227 134.065 89.424C134.972 89.9147 135.681 90.5973 136.193 91.472C136.705 92.336 136.961 93.312 136.961 94.4C136.961 95.488 136.705 96.4693 136.193 97.344C135.681 98.208 134.972 98.8907 134.065 99.392C133.158 99.8827 132.145 100.128 131.025 100.128ZM131.025 98.704C131.846 98.704 132.582 98.5173 133.233 98.144C133.894 97.7707 134.412 97.2587 134.785 96.608C135.169 95.9467 135.361 95.2107 135.361 94.4C135.361 93.5893 135.169 92.8587 134.785 92.208C134.412 91.5467 133.894 91.0293 133.233 90.656C132.582 90.2827 131.846 90.096 131.025 90.096C130.204 90.096 129.457 90.2827 128.785 90.656C128.124 91.0293 127.601 91.5467 127.217 92.208C126.844 92.8587 126.657 93.5893 126.657 94.4C126.657 95.2107 126.844 95.9467 127.217 96.608C127.601 97.2587 128.124 97.7707 128.785 98.144C129.457 98.5173 130.204 98.704 131.025 98.704ZM139.407 88.8H141.007V98.608H147.071V100H139.407V88.8ZM148.907 88.8H150.507V98.608H156.571V100H148.907V88.8ZM165.589 97.2H159.637L158.405 100H156.757L161.829 88.8H163.413L168.501 100H166.821L165.589 97.2ZM165.029 95.92L162.613 90.432L160.197 95.92H165.029ZM179.804 88.8V100H178.492L171.772 91.648V100H170.172V88.8H171.484L178.204 97.152V88.8H179.804ZM183.157 88.8H187.877C189.061 88.8 190.111 89.0347 191.029 89.504C191.946 89.9733 192.655 90.6347 193.157 91.488C193.669 92.3307 193.925 93.3013 193.925 94.4C193.925 95.4987 193.669 96.4747 193.157 97.328C192.655 98.1707 191.946 98.8267 191.029 99.296C190.111 99.7653 189.061 100 187.877 100H183.157V88.8ZM187.781 98.608C188.687 98.608 189.482 98.432 190.165 98.08C190.858 97.728 191.391 97.2373 191.765 96.608C192.138 95.968 192.325 95.232 192.325 94.4C192.325 93.568 192.138 92.8373 191.765 92.208C191.391 91.568 190.858 91.072 190.165 90.72C189.482 90.368 188.687 90.192 187.781 90.192H184.757V98.608H187.781Z" fill="white"/>
<g clip-path="url(#clip0_2123_264)">
<path d="M152.955 56C149.355 56.1637 146.409 58.9455 146 62.4637C146 63.2 146 63.8546 146.164 64.5091C146.164 64.5091 146.164 64.5909 146.245 64.7546C146.327 65.2455 146.491 65.7364 146.736 66.1455C147.473 67.8637 149.109 70.7273 152.873 73.8364C153.118 74 153.445 74 153.691 73.8364C157.455 70.7273 159.091 67.8637 159.827 66.1455C160.073 65.6546 160.236 65.2455 160.318 64.7546C160.318 64.5909 160.4 64.5091 160.4 64.5091C160.482 64.1 160.564 63.6091 160.564 63.1182C160.4 59.1091 157.045 55.8364 152.955 56ZM153.2 66.7182C151.236 66.7182 149.682 65.1637 149.682 63.2C149.682 61.2364 151.236 59.6818 153.2 59.6818C155.164 59.6818 156.636 61.3182 156.636 63.2818C156.636 65.2455 155.082 66.7182 153.2 66.7182Z" fill="white"/>
</g>
<defs>
<clipPath id="clip0_2123_264">
<rect width="15" height="19" fill="white" transform="translate(146 55)"/>
</clipPath>
</defs>
</svg>
