<!-- Generated by IcoMoon.io -->
<svg version="1.1" xmlns="http://www.w3.org/2000/svg" width="31" height="32" viewBox="0 0 31 32">
<title>box</title>
<path d="M0.775 31.423c-0.484 0-0.775-0.387-0.775-0.775v-29.059c0.097-0.387 0.387-0.775 0.775-0.775h28.962c0.484 0 0.775 0.387 0.775 0.775v28.962c0 0.484-0.387 0.775-0.775 0.775h-28.962v0.097zM1.647 29.777h27.412v-27.412h-9.396v9.299c0 0.387-0.387 0.775-0.775 0.775-0.097 0-0.291 0-0.387-0.097l-3.1-1.647-3.003 1.647c-0.291 0.097-0.387 0.097-0.484 0.097-0.194 0-0.387-0.097-0.581-0.194-0.097-0.097-0.291-0.291-0.291-0.581v-9.299h-9.396v27.412zM15.304 9.145c0.097 0 0.291 0 0.387 0.097l2.325 1.259v-8.136h-5.424v8.040l2.325-1.259c0.194 0 0.291 0 0.387 0zM5.134 25.999c-0.484 0-0.775-0.387-0.775-0.775s0.387-0.775 0.775-0.775h8.33c0.484 0 0.775 0.387 0.775 0.775s-0.291 0.775-0.775 0.775h-8.33zM5.134 22.512c-0.484 0-0.775-0.387-0.775-0.775s0.387-0.775 0.775-0.775h6.587c0.484 0 0.775 0.387 0.775 0.775s-0.387 0.775-0.775 0.775h-6.587z"></path>
</svg>
