<!-- Generated by IcoMoon.io -->
<svg version="1.1" xmlns="http://www.w3.org/2000/svg" width="45" height="32" viewBox="0 0 45 32">
<title>envelope</title>
<path d="M44.52 2.24l-13.72 13.44 13.72 13.44c0.28-0.56 0.28-1.12 0.28-1.68v-23.52c0-0.56-0.28-1.12-0.28-1.68zM40.88 0h-36.96c-0.56 0-1.12 0.28-1.68 0.28l17.36 17.36c1.4 1.4 3.92 1.4 5.6 0l17.36-17.36c-0.56 0-1.12-0.28-1.68-0.28zM0.28 2.24c0 0.56-0.28 1.12-0.28 1.68v23.52c0 0.56 0.28 1.12 0.28 1.68l13.72-13.44-13.72-13.44zM28.84 17.64l-1.68 1.96c-2.8 2.52-6.72 2.52-9.52 0l-1.68-1.96-13.72 13.44c0.56 0.28 1.12 0.28 1.68 0.28h36.96c0.56 0 1.12-0.28 1.68-0.28l-13.72-13.44z"></path>
</svg>
