<!-- Generated by IcoMoon.io -->
<svg version="1.1" xmlns="http://www.w3.org/2000/svg" width="22" height="32" viewBox="0 0 22 32">
<title>mark-additional</title>
<path d="M12.692 30.113c0-1.072-0.854-1.93-1.978-1.93s-2.023 0.815-2.023 1.887c0 1.072 0.854 1.929 1.978 1.929 1.079 0 1.978-0.858 2.023-1.887z"></path>
<path d="M18.086 2.843c-2.877-2.701-7.238-3.73-11.284-1.972-2.922 1.286-5.125 3.859-5.754 6.903-0.18 0.729-0.27 1.501-0.27 2.23 0 2.787 1.079 5.574 2.877 7.761l7.103 8.533 7.328-8.361c3.776-4.288 4.361-10.977 0-15.093zM7.567 6.059c1.933-1.801 5.080-1.758 6.968 0.086s1.843 4.845-0.090 6.646-5.080 1.758-6.968-0.086c-0.944-0.943-1.394-2.144-1.394-3.345s0.495-2.401 1.484-3.302z"></path>
</svg>
