<!-- Generated by IcoMoon.io -->
<svg version="1.1" xmlns="http://www.w3.org/2000/svg" width="32" height="32" viewBox="0 0 32 32">
<title>phone</title>
<path d="M31 23c0 0-6.4-4.6-8.2-4.4-0.8 0.2-1.4 0.8-2.2 1.8-0.2 0.2-0.6 0.6-0.8 1-0.6-0.2-1.2-0.4-1.8-0.8-3-1.2-5.4-3.6-6.8-6.6-0.2-0.6-0.6-1.2-0.8-1.8 0.4-0.2 0.8-0.6 1-0.8 1.2-0.8 1.8-1.4 1.8-2.2 0.4-1.8-4.2-8.2-4.4-8.2-0.2-0.6-1-1-1.6-1-2 0-7.2 6.8-7.2 8 0 0 0 6.8 8.6 15.4 8.4 8.6 15.4 8.6 15.4 8.6 1.2 0 8-5.2 8-7.2 0-0.6-0.4-1.4-1-1.8z"></path>
</svg>
