<!-- Generated by IcoMoon.io -->
<svg version="1.1" xmlns="http://www.w3.org/2000/svg" width="42" height="32" viewBox="0 0 42 32">
<title>plane</title>
<path d="M12.939 31.423c-0.278 0-0.417-0.139-0.557-0.278s-0.139-0.417-0.139-0.696l3.617-9.878h-9.878c-3.339 0-5.983-2.783-5.983-6.261v-10.017c0-0.974 0.696-1.67 1.67-1.67 1.809 0 3.478 1.252 4.035 3.061l1.53 5.287c0.139 0.417 0.557 0.696 0.974 0.696h7.652l-3.617-9.878c-0.139-0.278 0-0.557 0.139-0.696s0.417-0.278 0.557-0.278h3.339c1.53 0 2.783 0.835 3.617 2.087l5.287 8.765h7.791c3.478 0 6.678 1.809 8.487 4.87 0.278 0.417 0.417 0.835 0.417 1.391 0 1.391-1.113 2.643-2.504 2.643h-13.913l-5.426 8.904c-0.835 1.252-2.087 2.087-3.617 2.087h-3.478v-0.139zM18.226 15.423c0.139 0 0.139 0 0.278 0 0.139 0.139 0.278 0.278 0.417 0.417s0.139 0.417 0 0.557l-4.87 13.496h2.226c0.974 0 1.809-0.557 2.365-1.391l7.791-12.8c0.139-0.278 0.417-0.417 0.557-0.417s0.278 0 0.417 0.139c0.139 0.139 0.278 0.278 0.278 0.417s0 0.417-0.139 0.557l-1.53 2.504h13.078c0.696 0 0.974-0.557 0.974-1.113 0-0.139 0-0.417-0.139-0.557-1.53-2.643-4.313-4.174-7.235-4.174h-24.487c-1.113 0-2.087-0.696-2.365-1.809l-1.53-5.148c-0.417-1.113-1.391-1.948-2.643-1.948h-0.139v10.156c0 2.643 2.087 4.73 4.452 4.73h10.435l1.113-3.2c0.139-0.278 0.417-0.417 0.696-0.417zM17.391 11.667h5.983l-4.87-8.070c-0.557-0.835-1.391-1.391-2.365-1.391h-2.226l3.478 9.461z"></path>
</svg>
