<!-- Generated by IcoMoon.io -->
<svg version="1.1" xmlns="http://www.w3.org/2000/svg" width="44" height="32" viewBox="0 0 44 32">
<title>plane-additional</title>
<path d="M2.151 18.001l5.962 2.259-1.22 0.612c-0.33 0.238-0.43 0.581-0.304 0.916l1.83 3.547c0.121 0.221 0.239 0.33 0.464 0.321 0.23 0.104 0.343 0.1 0.564-0.021l12.636-6.47 0.048-1.697 0.14-2.265c-0.013-0.338 0.317-0.577 0.547-0.473 0.226-0.009 0.343 0.1 0.464 0.321 0.004 0.113 0.121 0.221 0.126 0.334l-0.866 15.853c0.347 0.213 0.803 0.309 1.137 0.183 0.56-0.134 1.098-0.833 1.394-1.974l5.302-18.056 0.209-0.46c0.1-0.343 0.434-0.469 0.664-0.364 0.343 0.1 0.469 0.434 0.364 0.664l-0.5 1.714-0.604 1.944 9.862-5.121c2.882-1.466 4.242-4.342 3.145-6.448-0.607-1.107-1.766-1.854-3.011-1.92-1.363-0.174-2.821 0.107-4.037 0.832l-11.082 5.733-12.484-4.384c-1.601-0.504-2.842-0.457-3.607 0.25-0.656 0.59-1.073 1.51-1.038 2.413 0.009 0.226 0.13 0.447 0.36 0.551l8.452 5.329-4.653 2.437-7.976-1.731c-0.339 0.013-0.673 0.139-0.886 0.486l-1.785 3.571c-0.213 0.347-0.083 0.794 0.381 1.116-0.004-0.113-0.004-0.113 0 0z"></path>
</svg>
