<!-- Generated by IcoMoon.io -->
<svg version="1.1" xmlns="http://www.w3.org/2000/svg" width="28" height="32" viewBox="0 0 28 32">
<title>viber</title>
<path d="M16.565 0h-6.024c-5.792 0-10.541 4.749-10.541 10.541v4.518c0 4.054 2.317 7.761 6.024 9.499v5.097c0 0.463 0.579 0.695 0.811 0.348l4.402-4.402h5.329c5.792 0 10.541-4.749 10.541-10.541v-4.518c0-5.792-4.749-10.541-10.541-10.541zM20.503 19.808l-1.506 1.506c-1.622 1.622-5.792-0.232-9.499-3.939s-5.329-8.109-3.823-9.614l1.506-1.506c0.579-0.579 1.506-0.579 2.201 0l2.201 2.201c0.811 0.811 0.463 2.201-0.579 2.433-0.695 0.232-1.158 1.043-0.927 1.738 0.348 1.622 2.433 3.707 4.054 4.17 0.695 0.116 1.506-0.232 1.738-0.927 0.348-1.043 1.738-1.274 2.433-0.579l2.201 2.201c0.579 0.695 0.579 1.622 0 2.317zM14.943 7.182c-0.116 0-0.348 0-0.463 0-0.348 0-0.579-0.232-0.579-0.463s0.232-0.579 0.463-0.579c0.232 0 0.348 0 0.579 0 2.78 0 4.981 2.201 4.981 4.981 0 0.232 0 0.348 0 0.579s-0.347 0.463-0.579 0.463c-0.232 0-0.463-0.348-0.463-0.579 0-0.116 0-0.348 0-0.463 0-2.201-1.738-3.938-3.939-3.938zM17.955 11.12c0 0.232-0.232 0.463-0.463 0.463s-0.463-0.232-0.463-0.463c0-1.043-0.927-1.969-1.969-1.969-0.232 0-0.463-0.232-0.463-0.463s0.232-0.463 0.463-0.463c1.506-0.116 2.896 1.274 2.896 2.896zM21.777 12.742c-0.116 0.232-0.347 0.463-0.695 0.348-0.232-0.116-0.463-0.348-0.347-0.579 0.116-0.463 0.116-0.927 0.116-1.39 0-3.359-2.664-6.024-6.024-6.024-0.116 0-0.348 0-0.463 0-0.232 0-0.579-0.232-0.579-0.463s0.232-0.579 0.463-0.579c0.232 0 0.348 0 0.579 0 3.823 0 7.066 3.128 7.066 7.066 0 0.579 0 1.158-0.116 1.622z"></path>
</svg>
