<svg xmlns="http://www.w3.org/2000/svg" enable-background="new 0 0 64 64" viewBox="0 0 64 64"><path fill="#133851" d="M63.029,31.719c0-0.223-0.085-0.427-0.217-0.591c-0.028-0.039-0.047-0.078-0.075-0.106
		c-0.132-0.126-1.654-1.591-4.044-3.123c-2.396-1.542-5.65-3.161-9.271-3.617c4.467-5.915,4.599-14.041,4.599-14.41
		c0-0.262-0.104-0.523-0.283-0.708c-0.111-0.107-0.244-0.175-0.385-0.223c-0.094-0.029-0.197-0.049-0.292-0.049h-0.01
		c-0.365,0.01-8.292,0.32-14.029,4.956C38.121,6.4,32.648,0.563,32.395,0.291c-0.075-0.078-0.17-0.136-0.265-0.184
		c-0.018-0.01-0.028-0.02-0.037-0.029C31.98,0.029,31.858,0,31.727,0h-0.01c-0.056,0-0.104,0.029-0.149,0.039
		c-0.076,0.01-0.151,0.01-0.217,0.039c-0.029,0.02-0.057,0.049-0.094,0.068c-0.066,0.049-0.142,0.087-0.208,0.155
		c0,0-0.01,0-0.01,0.01c-0.253,0.271-5.642,6.274-6.525,13.73C18.854,9.493,11.125,9.3,10.57,9.3
		c-0.254-0.02-0.508,0.067-0.705,0.271c-0.095,0.097-0.16,0.214-0.208,0.34c0,0.009,0,0.009,0,0.009
		c-0.047,0.117-0.066,0.243-0.066,0.359c0,0,0,0.01,0,0.02c0.009,0.368,0.311,8.543,4.806,14.468
		c-7.099,0.912-12.675,6.371-13.108,6.798c-0.188,0.184-0.319,0.427-0.319,0.717c0,0,0.009,0,0.009,0.01c0,0-0.009,0-0.009,0.01
		c0.009,0.106,0.038,0.223,0.075,0.32v0.039c0.057,0.126,0.123,0.242,0.226,0.339c0.263,0.252,6.074,5.818,13.305,6.72
		C10.11,45.644,9.978,53.76,9.978,54.138c-0.009,0.262,0.093,0.514,0.283,0.698c0.178,0.185,0.432,0.291,0.686,0.281
		c0.357-0.019,8.283-0.32,14.029-4.955c0.902,7.447,6.375,13.285,6.628,13.547C31.773,63.894,32.019,64,32.272,64h0.009
		c0.255,0,0.499-0.106,0.678-0.301c0.244-0.271,5.65-6.264,6.534-13.73c5.727,4.606,13.597,4.742,13.963,4.751
		c0.265-0.01,0.499-0.106,0.678-0.291c0.141-0.146,0.207-0.34,0.244-0.534c0.011-0.059,0.028-0.117,0.028-0.174
		c-0.01-0.194-0.084-2.328-0.724-5.159s-1.824-6.361-4.072-9.319c7.222-0.921,12.883-6.564,13.137-6.827
		C62.935,32.233,63.039,31.98,63.029,31.719z M50.515,11.132l-3.376,3.481c-0.368,0.378-0.368,0.999,0,1.377
		c0.178,0.184,0.422,0.281,0.657,0.281c0.245,0,0.489-0.097,0.668-0.281l3.451-3.559c-0.414,3.083-1.618,8.281-5.021,11.879
		l-9.968,4.441c-0.489-0.786-1.156-1.445-1.927-1.92l3.996-10.395C42.464,12.965,47.485,11.636,50.515,11.132z M35.978,32.01
		c0,0.533-0.095,1.038-0.292,1.513c-0.376,0.989-1.139,1.803-2.126,2.24c-0.93,0.446-2.067,0.465-3.037,0.039
		c-0.959-0.388-1.758-1.183-2.181-2.172c-0.207-0.504-0.319-1.057-0.319-1.62c0-0.533,0.094-1.038,0.282-1.503c0-0.01,0-0.01,0-0.01
		c0.386-0.999,1.157-1.823,2.125-2.259c0.988-0.427,2.097-0.437,3.038-0.039c0.978,0.398,1.768,1.193,2.181,2.182
		C35.863,30.885,35.978,31.438,35.978,32.01z M30.787,3.733v4.936c0,0.534,0.422,0.97,0.94,0.97c0.517,0,0.939-0.436,0.939-0.97
		V3.646c1.815,2.492,4.533,7.04,4.589,12.063L33.26,26.114c-0.875-0.194-1.787-0.185-2.68,0.039l-4.297-10.259
		C26.348,10.909,28.991,6.293,30.787,3.733z M11.765,12.897l3.384,3.49c0.179,0.185,0.423,0.281,0.659,0.281
		c0.245,0,0.48-0.097,0.667-0.281c0.367-0.378,0.367-0.999,0-1.377l-3.433-3.539c2.991,0.427,8.021,1.668,11.51,5.178l4.297,10.27
		c-0.763,0.514-1.401,1.193-1.862,1.988l-10.08-4.121C13.532,21.208,12.244,16.01,11.765,12.897z M4.58,33.251h4.796
		c0.526,0,0.94-0.436,0.94-0.97c0-0.543-0.414-0.97-0.94-0.97H4.524c2.426-1.881,6.828-4.664,11.678-4.723l10.089,4.122
		c-0.094,0.427-0.149,0.854-0.149,1.299c0,0.495,0.065,0.979,0.179,1.464l-9.948,4.432C11.529,37.837,7.054,35.103,4.58,33.251z
		 M13.467,52.878l3.394-3.501c0.367-0.378,0.367-0.989,0-1.377c-0.368-0.378-0.959-0.378-1.326,0l-3.451,3.559
		c0.424-3.093,1.627-8.281,5.021-11.869l9.958-4.441c0.499,0.795,1.166,1.455,1.929,1.93l-3.997,10.385
		C21.524,51.055,16.484,52.383,13.467,52.878z M33.212,60.276v-4.955c0-0.533-0.422-0.97-0.94-0.97c-0.517,0-0.939,0.437-0.939,0.97
		v5.033c-1.825-2.492-4.533-7.04-4.59-12.053l3.997-10.405c0.404,0.097,0.829,0.155,1.26,0.155c0.499,0,0.978-0.078,1.438-0.194
		l4.289,10.26C37.66,53.11,35.009,57.716,33.212,60.276z M52.234,51.093l-3.384-3.491c-0.367-0.378-0.96-0.378-1.327,0
		s-0.367,0.999,0,1.377l3.451,3.559c-2.99-0.427-8.03-1.668-11.519-5.169l-4.297-10.288c0.762-0.504,1.4-1.183,1.861-1.979
		l10.08,4.122C50.466,42.803,51.746,47.971,52.234,51.093z M47.806,37.43L37.707,33.3c0.094-0.417,0.151-0.844,0.151-1.29
		c0-0.504-0.066-0.999-0.188-1.484l9.947-4.422c4.835,0.068,9.301,2.783,11.781,4.645h-4.775c-0.526,0-0.94,0.427-0.94,0.97
		c0,0.534,0.414,0.97,0.94,0.97h4.89C57.096,34.56,52.676,37.363,47.806,37.43z"/><path fill="#FEDC7D" d="M35.978,32.01c0,0.533-0.095,1.038-0.292,1.513c-0.376,0.989-1.139,1.803-2.126,2.24
		c-0.93,0.446-2.067,0.465-3.037,0.039c-0.959-0.388-1.758-1.183-2.181-2.172c-0.207-0.504-0.319-1.057-0.319-1.62
		c0-0.533,0.094-1.038,0.282-1.503c0-0.01,0-0.01,0-0.01c0.386-0.999,1.157-1.823,2.125-2.259c0.988-0.427,2.097-0.437,3.038-0.039
		c0.978,0.398,1.768,1.193,2.181,2.182C35.863,30.885,35.978,31.438,35.978,32.01z"/><path fill="#D7E9F1" d="M59.513 32.688c-2.417 1.872-6.837 4.674-11.707 4.742L37.707 33.3c.094-.417.151-.844.151-1.29 0-.504-.066-.999-.188-1.484l9.947-4.422c4.835.068 9.301 2.783 11.781 4.645h-4.775c-.526 0-.94.427-.94.97 0 .534.414.97.94.97H59.513zM33.212 60.276v-4.955c0-.533-.422-.97-.94-.97-.517 0-.939.437-.939.97v5.033c-1.825-2.492-4.533-7.04-4.59-12.053l3.997-10.405c.404.097.829.155 1.26.155.499 0 .978-.078 1.438-.194l4.289 10.26C37.66 53.11 35.009 57.716 33.212 60.276zM26.32 33.474l-9.948 4.432c-4.843-.068-9.318-2.803-11.792-4.655h4.796c.526 0 .94-.436.94-.97 0-.543-.414-.97-.94-.97H4.524c2.426-1.881 6.828-4.664 11.678-4.723l10.089 4.122c-.094.427-.149.854-.149 1.299C26.142 32.504 26.207 32.989 26.32 33.474zM37.256 15.709L33.26 26.114c-.875-.194-1.787-.185-2.68.039l-4.297-10.259c.066-4.984 2.709-9.6 4.505-12.16v4.936c0 .534.422.97.94.97.517 0 .939-.436.939-.97V3.646C34.481 6.138 37.199 10.686 37.256 15.709z"/><path fill="#B8DAE7" d="M51.915 12.432c-.414 3.083-1.618 8.281-5.021 11.879l-9.968 4.441c-.489-.786-1.156-1.445-1.927-1.92l3.996-10.395c3.469-3.472 8.49-4.8 11.52-5.304l-3.376 3.481c-.368.378-.368.999 0 1.377.178.184.422.281.657.281.245 0 .489-.097.668-.281L51.915 12.432zM47.523 48.979l3.451 3.559c-2.99-.427-8.03-1.668-11.519-5.169l-4.297-10.288c.762-.504 1.4-1.183 1.861-1.979l10.08 4.122c3.365 3.578 4.646 8.747 5.134 11.869l-3.384-3.491c-.367-.378-.96-.378-1.327 0S47.156 48.602 47.523 48.979zM28.991 37.179l-3.997 10.385c-3.47 3.491-8.51 4.819-11.528 5.314l3.394-3.501c.367-.378.367-.989 0-1.377-.368-.378-.959-.378-1.326 0l-3.451 3.559c.424-3.093 1.627-8.281 5.021-11.869l9.958-4.441C27.561 36.043 28.229 36.703 28.991 37.179zM28.85 26.919c-.763.514-1.401 1.193-1.862 1.988l-10.08-4.121c-3.375-3.578-4.664-8.776-5.143-11.888l3.384 3.49c.179.185.423.281.659.281.245 0 .48-.097.667-.281.367-.378.367-.999 0-1.377l-3.433-3.539c2.991.427 8.021 1.668 11.51 5.178L28.85 26.919z"/></svg>