<svg aria-hidden="true" style="position: absolute; width: 0; height: 0; overflow: hidden;" version="1.1" xmlns="http://www.w3.org/2000/svg" xmlns:xlink="http://www.w3.org/1999/xlink">
<defs>
<symbol id="icon-left" viewBox="0 0 57 32">
<path d="M17.143 28.8l-11.886-12.114h51.886v-2.743h-51.886l11.886-11.886-1.829-2.057-15.314 15.314 15.314 15.314 1.829-1.829z"></path>
</symbol>
<symbol id="icon-telegram" viewBox="0 0 36 32">
<path d="M14.119 21.818l-0.543 8.281c0.815 0 1.222-0.407 1.629-0.814l3.937-3.801 8.281 5.973c1.493 0.815 2.579 0.407 2.987-1.357l5.43-25.387c0.543-2.172-0.815-3.122-2.308-2.579l-31.767 12.218c-2.308 0.95-2.172 2.172-0.407 2.715l8.145 2.579 18.87-11.811c0.95-0.543 1.629-0.271 1.086 0.271l-15.341 13.712z"></path>
</symbol>
<symbol id="icon-viber" viewBox="0 0 28 32">
<path d="M16.565 0h-6.024c-5.792 0-10.541 4.749-10.541 10.541v4.518c0 4.054 2.317 7.761 6.024 9.499v5.097c0 0.463 0.579 0.695 0.811 0.348l4.402-4.402h5.329c5.792 0 10.541-4.749 10.541-10.541v-4.518c0-5.792-4.749-10.541-10.541-10.541zM20.503 19.808l-1.506 1.506c-1.622 1.622-5.792-0.232-9.499-3.939s-5.329-8.109-3.823-9.614l1.506-1.506c0.579-0.579 1.506-0.579 2.201 0l2.201 2.201c0.811 0.811 0.463 2.201-0.579 2.433-0.695 0.232-1.158 1.043-0.927 1.738 0.348 1.622 2.433 3.707 4.054 4.17 0.695 0.116 1.506-0.232 1.738-0.927 0.348-1.043 1.738-1.274 2.433-0.579l2.201 2.201c0.579 0.695 0.579 1.622 0 2.317zM14.943 7.182c-0.116 0-0.348 0-0.463 0-0.348 0-0.579-0.232-0.579-0.463s0.232-0.579 0.463-0.579c0.232 0 0.348 0 0.579 0 2.78 0 4.981 2.201 4.981 4.981 0 0.232 0 0.348 0 0.579s-0.347 0.463-0.579 0.463c-0.232 0-0.463-0.348-0.463-0.579 0-0.116 0-0.348 0-0.463 0-2.201-1.738-3.938-3.939-3.938zM17.955 11.12c0 0.232-0.232 0.463-0.463 0.463s-0.463-0.232-0.463-0.463c0-1.043-0.927-1.969-1.969-1.969-0.232 0-0.463-0.232-0.463-0.463s0.232-0.463 0.463-0.463c1.506-0.116 2.896 1.274 2.896 2.896zM21.777 12.742c-0.116 0.232-0.347 0.463-0.695 0.348-0.232-0.116-0.463-0.348-0.347-0.579 0.116-0.463 0.116-0.927 0.116-1.39 0-3.359-2.664-6.024-6.024-6.024-0.116 0-0.348 0-0.463 0-0.232 0-0.579-0.232-0.579-0.463s0.232-0.579 0.463-0.579c0.232 0 0.348 0 0.579 0 3.823 0 7.066 3.128 7.066 7.066 0 0.579 0 1.158-0.116 1.622z"></path>
</symbol>
<symbol id="icon-arrow" viewBox="0 0 28 32">
<path d="M12.588 8.588c0.781-0.781 2.050-0.781 2.831 0l10 10c0.781 0.781 0.781 2.050 0 2.831s-2.050 0.781-2.831 0l-8.588-8.588-8.588 8.581c-0.781 0.781-2.050 0.781-2.831 0s-0.781-2.050 0-2.831l10-10z"></path>
</symbol>
<symbol id="icon-box" viewBox="0 0 31 32">
<path d="M0.775 31.423c-0.484 0-0.775-0.387-0.775-0.775v-29.059c0.097-0.387 0.387-0.775 0.775-0.775h28.962c0.484 0 0.775 0.387 0.775 0.775v28.962c0 0.484-0.387 0.775-0.775 0.775h-28.962v0.097zM1.647 29.777h27.412v-27.412h-9.396v9.299c0 0.387-0.387 0.775-0.775 0.775-0.097 0-0.291 0-0.387-0.097l-3.1-1.647-3.003 1.647c-0.291 0.097-0.387 0.097-0.484 0.097-0.194 0-0.387-0.097-0.581-0.194-0.097-0.097-0.291-0.291-0.291-0.581v-9.299h-9.396v27.412zM15.304 9.145c0.097 0 0.291 0 0.387 0.097l2.325 1.259v-8.136h-5.424v8.040l2.325-1.259c0.194 0 0.291 0 0.387 0zM5.134 25.999c-0.484 0-0.775-0.387-0.775-0.775s0.387-0.775 0.775-0.775h8.33c0.484 0 0.775 0.387 0.775 0.775s-0.291 0.775-0.775 0.775h-8.33zM5.134 22.512c-0.484 0-0.775-0.387-0.775-0.775s0.387-0.775 0.775-0.775h6.587c0.484 0 0.775 0.387 0.775 0.775s-0.387 0.775-0.775 0.775h-6.587z"></path>
</symbol>
<symbol id="icon-envelope" viewBox="0 0 45 32">
<path d="M44.52 2.24l-13.72 13.44 13.72 13.44c0.28-0.56 0.28-1.12 0.28-1.68v-23.52c0-0.56-0.28-1.12-0.28-1.68zM40.88 0h-36.96c-0.56 0-1.12 0.28-1.68 0.28l17.36 17.36c1.4 1.4 3.92 1.4 5.6 0l17.36-17.36c-0.56 0-1.12-0.28-1.68-0.28zM0.28 2.24c0 0.56-0.28 1.12-0.28 1.68v23.52c0 0.56 0.28 1.12 0.28 1.68l13.72-13.44-13.72-13.44zM28.84 17.64l-1.68 1.96c-2.8 2.52-6.72 2.52-9.52 0l-1.68-1.96-13.72 13.44c0.56 0.28 1.12 0.28 1.68 0.28h36.96c0.56 0 1.12-0.28 1.68-0.28l-13.72-13.44z"></path>
</symbol>
<symbol id="icon-plane-additional" viewBox="0 0 44 32">
<path d="M2.151 18.001l5.962 2.259-1.22 0.612c-0.33 0.238-0.43 0.581-0.304 0.916l1.83 3.547c0.121 0.221 0.239 0.33 0.464 0.321 0.23 0.104 0.343 0.1 0.564-0.021l12.636-6.47 0.048-1.697 0.14-2.265c-0.013-0.338 0.317-0.577 0.547-0.473 0.226-0.009 0.343 0.1 0.464 0.321 0.004 0.113 0.121 0.221 0.126 0.334l-0.866 15.853c0.347 0.213 0.803 0.309 1.137 0.183 0.56-0.134 1.098-0.833 1.394-1.974l5.302-18.056 0.209-0.46c0.1-0.343 0.434-0.469 0.664-0.364 0.343 0.1 0.469 0.434 0.364 0.664l-0.5 1.714-0.604 1.944 9.862-5.121c2.882-1.466 4.242-4.342 3.145-6.448-0.607-1.107-1.766-1.854-3.011-1.92-1.363-0.174-2.821 0.107-4.037 0.832l-11.082 5.733-12.484-4.384c-1.601-0.504-2.842-0.457-3.607 0.25-0.656 0.59-1.073 1.51-1.038 2.413 0.009 0.226 0.13 0.447 0.36 0.551l8.452 5.329-4.653 2.437-7.976-1.731c-0.339 0.013-0.673 0.139-0.886 0.486l-1.785 3.571c-0.213 0.347-0.083 0.794 0.381 1.116-0.004-0.113-0.004-0.113 0 0z"></path>
</symbol>
<symbol id="icon-phone" viewBox="0 0 32 32">
<path d="M31 23c0 0-6.4-4.6-8.2-4.4-0.8 0.2-1.4 0.8-2.2 1.8-0.2 0.2-0.6 0.6-0.8 1-0.6-0.2-1.2-0.4-1.8-0.8-3-1.2-5.4-3.6-6.8-6.6-0.2-0.6-0.6-1.2-0.8-1.8 0.4-0.2 0.8-0.6 1-0.8 1.2-0.8 1.8-1.4 1.8-2.2 0.4-1.8-4.2-8.2-4.4-8.2-0.2-0.6-1-1-1.6-1-2 0-7.2 6.8-7.2 8 0 0 0 6.8 8.6 15.4 8.4 8.6 15.4 8.6 15.4 8.6 1.2 0 8-5.2 8-7.2 0-0.6-0.4-1.4-1-1.8z"></path>
</symbol>
<symbol id="icon-plane" viewBox="0 0 42 32">
<path d="M12.939 31.423c-0.278 0-0.417-0.139-0.557-0.278s-0.139-0.417-0.139-0.696l3.617-9.878h-9.878c-3.339 0-5.983-2.783-5.983-6.261v-10.017c0-0.974 0.696-1.67 1.67-1.67 1.809 0 3.478 1.252 4.035 3.061l1.53 5.287c0.139 0.417 0.557 0.696 0.974 0.696h7.652l-3.617-9.878c-0.139-0.278 0-0.557 0.139-0.696s0.417-0.278 0.557-0.278h3.339c1.53 0 2.783 0.835 3.617 2.087l5.287 8.765h7.791c3.478 0 6.678 1.809 8.487 4.87 0.278 0.417 0.417 0.835 0.417 1.391 0 1.391-1.113 2.643-2.504 2.643h-13.913l-5.426 8.904c-0.835 1.252-2.087 2.087-3.617 2.087h-3.478v-0.139zM18.226 15.423c0.139 0 0.139 0 0.278 0 0.139 0.139 0.278 0.278 0.417 0.417s0.139 0.417 0 0.557l-4.87 13.496h2.226c0.974 0 1.809-0.557 2.365-1.391l7.791-12.8c0.139-0.278 0.417-0.417 0.557-0.417s0.278 0 0.417 0.139c0.139 0.139 0.278 0.278 0.278 0.417s0 0.417-0.139 0.557l-1.53 2.504h13.078c0.696 0 0.974-0.557 0.974-1.113 0-0.139 0-0.417-0.139-0.557-1.53-2.643-4.313-4.174-7.235-4.174h-24.487c-1.113 0-2.087-0.696-2.365-1.809l-1.53-5.148c-0.417-1.113-1.391-1.948-2.643-1.948h-0.139v10.156c0 2.643 2.087 4.73 4.452 4.73h10.435l1.113-3.2c0.139-0.278 0.417-0.417 0.696-0.417zM17.391 11.667h5.983l-4.87-8.070c-0.557-0.835-1.391-1.391-2.365-1.391h-2.226l3.478 9.461z"></path>
</symbol>
<symbol id="icon-mark-additional" viewBox="0 0 22 32">
<path d="M12.692 30.113c0-1.072-0.854-1.93-1.978-1.93s-2.023 0.815-2.023 1.887c0 1.072 0.854 1.929 1.978 1.929 1.079 0 1.978-0.858 2.023-1.887z"></path>
<path d="M18.086 2.843c-2.877-2.701-7.238-3.73-11.284-1.972-2.922 1.286-5.125 3.859-5.754 6.903-0.18 0.729-0.27 1.501-0.27 2.23 0 2.787 1.079 5.574 2.877 7.761l7.103 8.533 7.328-8.361c3.776-4.288 4.361-10.977 0-15.093zM7.567 6.059c1.933-1.801 5.080-1.758 6.968 0.086s1.843 4.845-0.090 6.646-5.080 1.758-6.968-0.086c-0.944-0.943-1.394-2.144-1.394-3.345s0.495-2.401 1.484-3.302z"></path>
</symbol>
</defs>
</svg>
